<svg width="40" height="40" viewBox="0 0 40 40" fill="none" xmlns="http://www.w3.org/2000/svg">
<path d="M27.5 0C20.5975 0 15 5.5975 15 12.5C15 13.2825 15.0725 14.0475 15.21 14.79L0 30V37.5C0 38.88 1.12 40 2.5 40H5V37.5H10V32.5H15V27.5H20L23.245 24.255C24.5725 24.735 26.0075 25 27.5 25C34.4025 25 40 19.4025 40 12.5C40 5.5975 34.4025 0 27.5 0ZM31.245 12.505C29.175 12.505 27.495 10.825 27.495 8.755C27.495 6.685 29.175 5.005 31.245 5.005C33.315 5.005 34.995 6.685 34.995 8.755C34.995 10.825 33.315 12.505 31.245 12.505Z" fill="#FFF504"/>
</svg>
