<svg width="45" height="45" viewBox="0 0 45 45" fill="none" xmlns="http://www.w3.org/2000/svg">
<path fill-rule="evenodd" clip-rule="evenodd" d="M8.4375 39.375C8.4375 39.375 5.625 39.375 5.625 36.5625C5.625 33.75 8.4375 25.3125 22.5 25.3125C36.5625 25.3125 39.375 33.75 39.375 36.5625C39.375 39.375 36.5625 39.375 36.5625 39.375H8.4375ZM22.5 22.5C24.7378 22.5 26.8839 21.6111 28.4662 20.0287C30.0486 18.4464 30.9375 16.3003 30.9375 14.0625C30.9375 11.8247 30.0486 9.67863 28.4662 8.09629C26.8839 6.51395 24.7378 5.625 22.5 5.625C20.2622 5.625 18.1161 6.51395 16.5338 8.09629C14.9514 9.67863 14.0625 11.8247 14.0625 14.0625C14.0625 16.3003 14.9514 18.4464 16.5338 20.0287C18.1161 21.6111 20.2622 22.5 22.5 22.5Z" fill="#FFF504"/>
</svg>
